PathFileType  4	(X/Y/Z) C:\Users\antoi\Documents\MyRepositories\mobilecap\ResultsAnalysis
DataRate	CameraRate	NumFrames	NumMarkers	Units	OrigDataRate	OrigDataStartFrame	OrigNumFrames
100.0	100.0	6	55	mm	100.0	63	501
Frame#	Time	r_knee			r_shank_antsup			r_ankle			r_calc			r_5meta			r_toe			L_knee			L_shank_antsup			L_ankle			L_calc			L_5meta			L_toe			r_mknee			r_mankle			L_mknee			L_mankle			r_sh2			r_sh3			r_sh4			L_sh2			L_sh3			r_thigh1			r_thigh2			r_thigh3			r_thigh4			r_thigh5			L_thigh1			L_thigh2			L_thigh3			L_thigh4			r.ASIS			r.PSIS			L.ASIS			L.PSIS			C7			R_Shoulder			L_Shoulder			R_Sternum			L_Sternum			R_humerus			R_elbow_med			R_elbow_lat			R_forearm			R_wrist_radius			R_wrist_ulna			L_humerus			L_elbow_med			L_elbow_lat			L_forearm			L_wrist_radius			L_wrist_ulna			R_HJC			L_HJC			R_HJC_reg			L_HJC_reg			
		X1	Y1	Z1	X2	Y2	Z2	X3	Y3	Z3	X4	Y4	Z4	X5	Y5	Z5	X6	Y6	Z6	X7	Y7	Z7	X8	Y8	Z8	X9	Y9	Z9	X10	Y10	Z10	X11	Y11	Z11	X12	Y12	Z12	X13	Y13	Z13	X14	Y14	Z14	X15	Y15	Z15	X16	Y16	Z16	X17	Y17	Z17	X18	Y18	Z18	X19	Y19	Z19	X20	Y20	Z20	X21	Y21	Z21	X22	Y22	Z22	X23	Y23	Z23	X24	Y24	Z24	X25	Y25	Z25	X26	Y26	Z26	X27	Y27	Z27	X28	Y28	Z28	X29	Y29	Z29	X30	Y30	Z30	X31	Y31	Z31	X32	Y32	Z32	X33	Y33	Z33	X34	Y34	Z34	X35	Y35	Z35	X36	Y36	Z36	X37	Y37	Z37	X38	Y38	Z38	X39	Y39	Z39	X40	Y40	Z40	X41	Y41	Z41	X42	Y42	Z42	X43	Y43	Z43	X44	Y44	Z44	X45	Y45	Z45	X46	Y46	Z46	X47	Y47	Z47	X48	Y48	Z48	X49	Y49	Z49	X50	Y50	Z50	X51	Y51	Z51	X52	Y52	Z52	X53	Y53	Z53	X54	Y54	Z54	X55	Y55	Z55	

63	0.62000000	-259.65852	474.94201	-419.58835	-235.88987	421.85072	-412.39182	-256.97385	86.02980	-387.46312	-308.84221	53.17401	-429.53612	-147.64368	42.82536	-353.95121	-109.51046	61.46195	-406.76858	-233.39172	473.24317	-774.35116	-203.44072	393.07639	-771.15029	-251.88281	94.76198	-816.87668	-308.84282	50.06593	-779.56553	-147.81324	44.97867	-846.25987	-101.38387	59.64494	-789.88730	-253.33158	447.79741	-546.98757	-240.77317	96.59438	-464.94271	-240.93291	447.70957	-647.64158	-241.02091	97.30883	-735.95520	-243.24452	311.14363	-388.89185	-307.89276	432.72342	-393.02281	-323.33089	315.43301	-377.79066	-280.63373	416.40072	-815.07711	-286.19471	295.10475	-837.40984	-169.63481	720.40150	-396.30855	-177.00979	608.99201	-404.90076	-240.59959	589.17627	-396.06557	-281.43153	726.52626	-408.55539	-285.67360	610.45141	-419.86227	-146.09687	749.07611	-792.32893	-150.03875	609.01056	-773.05124	-257.24618	748.68779	-808.84889	-263.48314	613.11176	-780.39746	-112.65630	920.77029	-479.58505	-320.89659	942.64641	-564.11602	-104.37936	926.90574	-704.24539	-315.60643	945.52583	-643.64972	-269.84579	1385.59798	-597.21463	-219.65949	1359.91981	-453.52345	-226.69845	1358.69102	-735.25453	-141.01857	1331.06269	-572.64642	-141.60865	1330.19023	-612.33193	-194.09385	1250.76672	-387.65767	-263.31581	1041.60918	-393.97596	-242.12960	1058.36305	-337.00334	-184.80802	997.09252	-296.32168	-144.53312	858.97698	-262.02063	-180.30184	856.97522	-246.89555	-221.17939	1260.30273	-811.32423	-255.84447	1039.12276	-800.09252	-245.71285	1063.71929	-858.31469	-187.96865	983.55637	-899.53138	-142.63460	863.34632	-918.90341	-179.90912	858.22496	-934.91386	-191.12127	830.15915	-493.63754	-182.31908	838.30273	-700.79821	-180.97197	848.35148	-517.71809	-171.12731	853.70989	-665.72597	
64	0.63000000	-259.68997	474.91875	-419.58133	-235.96802	421.75533	-412.43662	-256.97832	86.01316	-387.48890	-308.83258	53.14149	-429.50433	-147.65237	42.74945	-353.98801	-109.53251	61.47292	-406.85583	-233.41924	473.21580	-774.31888	-203.48063	393.05688	-771.12573	-251.88028	94.76524	-816.87948	-308.82731	50.07657	-779.57604	-147.80911	44.97738	-846.26384	-101.37501	59.61654	-789.88091	-253.34756	447.78793	-547.01433	-240.75598	96.56628	-464.86766	-240.93943	447.71002	-647.63790	-240.96631	97.22516	-735.98423	-243.36031	311.08850	-388.92262	-307.93242	432.65363	-393.17621	-323.65549	315.17518	-378.03095	-280.66307	416.41299	-815.06558	-286.21698	295.15277	-837.39832	-169.72250	720.36021	-396.32372	-177.03924	608.99265	-404.87587	-240.73577	589.16566	-396.05638	-281.50201	726.52953	-408.59909	-285.69906	610.40863	-419.82655	-145.89012	748.96851	-792.13404	-150.01886	608.98429	-773.01974	-257.20368	748.67435	-808.84840	-263.46963	613.10700	-780.39987	-112.67808	920.73534	-479.50628	-320.92487	942.58432	-564.28479	-104.33883	926.88205	-704.19592	-315.65460	945.45746	-643.69414	-269.95312	1385.53303	-597.22328	-219.78361	1359.84300	-453.46068	-226.79044	1358.66279	-735.18003	-141.14366	1331.06597	-572.56610	-141.68983	1330.19790	-612.25998	-194.17525	1250.72205	-387.62128	-263.37648	1041.60731	-393.82156	-242.17545	1058.30600	-336.81810	-184.80918	997.06021	-296.29444	-144.46393	858.98835	-261.90309	-180.23846	856.96251	-246.84205	-221.25980	1260.32631	-811.32489	-255.88466	1039.12873	-800.08189	-245.75463	1063.72255	-858.32458	-188.02870	983.57134	-899.58884	-142.68221	863.37424	-918.94920	-180.01979	858.26562	-934.99194	-191.17487	830.11659	-493.64572	-182.25490	838.26150	-700.80130	-180.95376	848.30360	-517.63212	-171.12929	853.65959	-665.66253	
65	0.64000000	-259.73544	474.94601	-419.62832	-236.00516	421.74132	-412.46487	-257.00350	85.96921	-387.50771	-308.85151	53.12611	-429.46864	-147.65196	42.71752	-354.08709	-109.50690	61.53342	-406.89786	-233.41945	473.29324	-774.37037	-203.51498	393.03255	-771.08025	-251.86506	94.77269	-816.87630	-308.85589	50.09368	-779.57918	-147.79894	44.98699	-846.25970	-101.35698	59.59427	-789.87109	-253.33846	447.81267	-547.00620	-240.74221	96.56914	-464.81252	-240.95002	447.71013	-647.63114	-240.87471	97.09489	-736.02700	-243.45292	311.01953	-388.97240	-308.45601	432.08564	-393.25647	-323.84650	315.07220	-378.16964	-280.69663	416.44897	-815.04075	-286.24098	295.19828	-837.38534	-169.71768	720.38062	-396.40333	-177.09565	608.89703	-404.97733	-240.74422	589.21394	-395.96380	-281.55643	726.51694	-408.63729	-285.69525	610.44731	-419.78945	-145.54798	749.02495	-791.93305	-149.99334	608.95491	-772.97447	-257.17140	748.68184	-808.84240	-263.46906	613.10245	-780.40474	-112.74903	920.81336	-479.34497	-320.96069	942.52308	-564.38530	-104.29658	926.86236	-704.15633	-315.65386	945.48908	-643.78548	-270.05189	1385.48235	-597.17633	-219.90205	1359.78772	-453.37627	-226.87789	1358.63846	-735.09611	-141.25575	1331.08305	-572.48177	-141.76888	1330.25251	-612.13650	-194.28651	1250.71478	-387.62359	-263.34708	1041.67064	-393.64476	-242.18112	1058.29944	-336.62801	-184.81087	997.03787	-296.27687	-144.40309	859.00678	-261.81284	-180.11649	857.00596	-246.72937	-221.31326	1260.35524	-811.32364	-255.91963	1039.15316	-800.09093	-245.79763	1063.73224	-858.32522	-188.07532	983.58542	-899.61965	-142.73141	863.38951	-918.95391	-180.08513	858.30864	-935.02742	-191.24691	830.15980	-493.59570	-182.17516	838.24400	-700.74703	-180.92727	848.13087	-517.61219	-171.02886	853.66306	-665.71263	
66	0.65000000	-259.78369	474.98120	-419.71786	-236.03541	421.81820	-412.46234	-257.02796	85.94500	-387.50729	-308.87516	53.15420	-429.46580	-147.63851	42.76364	-354.11787	-109.45940	61.56331	-406.85366	-233.45231	473.34588	-774.35998	-203.55052	393.06800	-771.02981	-251.84286	94.77551	-816.86864	-308.88777	50.12679	-779.54383	-147.78662	45.01043	-846.24750	-101.34689	59.59362	-789.85845	-253.33113	447.81781	-547.00188	-240.74739	96.65394	-464.90335	-240.96319	447.72243	-647.62121	-240.84568	97.07137	-736.03216	-243.53605	311.01775	-389.01644	-308.84768	431.67971	-393.21794	-323.75761	315.20428	-378.11310	-280.73498	416.50124	-815.00856	-286.30071	295.22374	-837.40920	-169.69880	720.45597	-396.40380	-177.13457	608.74878	-405.19295	-240.70050	589.23492	-395.90212	-281.60016	726.53056	-408.67694	-285.72704	610.49758	-419.80097	-145.30138	749.15458	-791.85138	-149.97928	608.95489	-772.93707	-257.14930	748.71350	-808.83309	-263.47903	613.11745	-780.39672	-112.86856	920.96827	-479.18696	-320.99598	942.51461	-564.41954	-104.25860	926.84943	-704.11609	-315.57401	945.58120	-643.86303	-270.14127	1385.50387	-597.12820	-219.98893	1359.80989	-453.27309	-226.94595	1358.63415	-735.02001	-141.33552	1331.12801	-572.41565	-141.85044	1330.32339	-612.04496	-194.38327	1250.76367	-387.62048	-263.28167	1041.69779	-393.52645	-242.19598	1058.34719	-336.51348	-184.80991	997.03951	-296.25767	-144.35368	859.03612	-261.76617	-179.93056	857.11260	-246.56959	-221.36051	1260.39057	-811.31852	-255.95995	1039.17281	-800.09622	-245.83489	1063.76590	-858.31272	-188.10632	983.61283	-899.61817	-142.77735	863.41575	-918.95359	-180.13655	858.35092	-935.03789	-191.32326	830.27423	-493.50219	-182.10163	838.24773	-700.65120	-180.97344	847.98773	-517.66726	-170.86179	853.70667	-665.82511	
67	0.66000000	-259.83102	474.97773	-419.78972	-236.08984	421.88367	-412.48592	-257.01901	85.99356	-387.50671	-308.86926	53.22846	-429.49860	-147.60799	42.85251	-354.05108	-109.45300	61.53756	-406.78172	-233.53228	473.31085	-774.23498	-203.58922	393.14781	-770.98273	-251.83396	94.79438	-816.85986	-308.88195	50.17142	-779.48096	-147.77657	45.05206	-846.23777	-101.34543	59.61749	-789.84855	-253.35871	447.80090	-547.06396	-240.76084	96.77513	-465.02409	-240.96861	447.75140	-647.61302	-240.85396	97.09902	-736.02216	-243.60869	311.10400	-389.06591	-308.59973	432.04936	-393.14800	-323.66278	315.34206	-378.04329	-280.77716	416.55539	-814.97786	-286.37462	295.27292	-837.45049	-169.74772	720.58010	-396.29697	-177.15829	608.71341	-405.29902	-240.72203	589.21081	-395.90944	-281.63401	726.58218	-408.70482	-285.77450	610.51251	-419.82427	-145.25512	749.19965	-791.87081	-149.97953	608.98636	-772.90642	-257.13029	748.75458	-808.82188	-263.48171	613.15902	-780.36769	-112.95169	921.07701	-479.10004	-321.02119	942.56255	-564.46423	-104.22620	926.85486	-704.09283	-315.48219	945.62459	-643.87331	-270.25035	1385.56632	-597.12966	-220.05132	1359.89184	-453.22899	-226.99251	1358.65937	-734.97450	-141.39889	1331.19832	-572.37706	-141.92484	1330.37082	-612.01849	-194.45528	1250.81947	-387.54678	-263.25980	1041.74131	-393.51517	-242.26271	1058.41411	-336.46359	-184.81414	997.06572	-296.23253	-144.30616	859.11963	-261.74516	-179.79392	857.23094	-246.44110	-221.40720	1260.42896	-811.30393	-255.99895	1039.19164	-800.09752	-245.86623	1063.81659	-858.25823	-188.12595	983.65282	-899.60858	-142.81228	863.45397	-918.95599	-180.18602	858.40230	-935.03982	-191.36754	830.36806	-493.43599	-182.04954	838.25748	-700.58395	-181.08117	848.00936	-517.69523	-170.74469	853.72341	-665.88104	
68	0.67000000	-259.89887	474.93050	-419.82995	-236.14951	421.89092	-412.51705	-256.98937	86.05383	-387.52261	-308.84846	53.30149	-429.52675	-147.58754	42.90085	-353.98458	-109.47691	61.54254	-406.76482	-233.60044	473.28434	-774.13302	-203.63434	393.20957	-770.93973	-251.84473	94.84323	-816.84853	-308.84935	50.22521	-779.44467	-147.76581	45.09527	-846.22327	-101.34555	59.65236	-789.84450	-253.45512	447.78823	-547.21495	-240.75673	96.83349	-464.95791	-240.99381	447.75508	-647.61303	-240.85769	97.09845	-736.02581	-243.65153	311.16088	-389.09018	-308.15621	432.69449	-393.11822	-323.84639	315.27416	-378.14168	-280.82263	416.59485	-814.93386	-286.41442	295.34993	-837.45963	-169.82445	720.65175	-396.23098	-177.22223	608.81055	-405.18904	-240.79485	589.19324	-395.93800	-281.66486	726.58382	-408.70054	-285.81675	610.47733	-419.84265	-145.34137	749.13606	-791.86885	-149.98167	609.02640	-772.87533	-257.10989	748.78643	-808.80998	-263.47362	613.20620	-780.33437	-112.97228	921.11710	-479.06408	-321.03894	942.60805	-564.52005	-104.19711	926.88100	-704.07223	-315.46823	945.59582	-643.84960	-270.38111	1385.60087	-597.14879	-220.15124	1359.94364	-453.26198	-227.03038	1358.69688	-734.95144	-141.46938	1331.28323	-572.34547	-141.98559	1330.40707	-612.00916	-194.55590	1250.84434	-387.43415	-263.31508	1041.80428	-393.53527	-242.32737	1058.47427	-336.40112	-184.83122	997.11974	-296.20194	-144.25302	859.23057	-261.70042	-179.77080	857.30354	-246.38326	-221.44663	1260.47539	-811.28318	-256.02679	1039.20942	-800.09508	-245.89637	1063.85779	-858.17682	-188.14971	983.69838	-899.60176	-142.83547	863.48972	-918.94881	-180.22290	858.46153	-935.03884	-191.37758	830.40771	-493.40874	-182.01577	838.26542	-700.55592	-181.14097	848.12876	-517.62846	-170.73427	853.71023	-665.82557	
